SplineFontDB: 3.0
FontName: Jones-it-Medium
FullName: Jones* Medium
FamilyName: Jones*-Medium
Weight: Medium
Copyright: 
UComments: "2016-1-29: Created with FontForge (http://fontforge.org)"
Version: 002.000
ItalicAngle: 0
UnderlinePosition: -150
UnderlineWidth: 75
Ascent: 784
Descent: 216
InvalidEm: 0
LayerCount: 2
Layer: 0 0 "Back" 1
Layer: 1 0 "Fore" 0
XUID: [1021 31 -699969567 4970488]
FSType: 0
OS2Version: 2
OS2_WeightWidthSlopeOnly: 0
OS2_UseTypoMetrics: 0
CreationTime: 1454127431
ModificationTime: 1457391830
PfmFamily: 17
TTFWeight: 500
TTFWidth: 5
LineGap: 0
VLineGap: 0
OS2TypoAscent: 784
OS2TypoAOffset: 0
OS2TypoDescent: -216
OS2TypoDOffset: 0
OS2TypoLinegap: 200
OS2WinAscent: 850
OS2WinAOffset: 0
OS2WinDescent: 300
OS2WinDOffset: 0
HheadAscent: 850
HheadAOffset: 0
HheadDescent: -300
HheadDOffset: 0
OS2SubXSize: 650
OS2SubYSize: 600
OS2SubXOff: 0
OS2SubYOff: 75
OS2SupXSize: 650
OS2SupYSize: 600
OS2SupXOff: 0
OS2SupYOff: 350
OS2StrikeYSize: 50
OS2StrikeYPos: 314
OS2CapHeight: 700
OS2XHeight: 520
OS2Vendor: 'PfEd'
Lookup: 5 0 0 "lig" { "lig-1"  } ['calt' ('DFLT' <'dflt' > 'grek' <'dflt' > 'latn' <'dflt' > ) ]
Lookup: 1 0 0 "fi" { "fi-1"  } ['ss01' ('DFLT' <'dflt' > 'grek' <'dflt' > 'latn' <'dflt' > ) ]
Lookup: 258 0 0 "kern" { "kerning" [150,0,2] } ['kern' ('DFLT' <'dflt' > 'grek' <'dflt' > 'latn' <'dflt' > ) ]
MarkAttachClasses: 1
DEI: 91125
KernClass2: 13 10 "kerning"
 3 A L
 5 D O Q
 3 F P
 3 K X
 3 V W
 13 b e h m n o p
 15 a c g q r s u z
 14 d f i j l t fi
 3 k x
 3 v w
 3 R B
 3 T Y
 1 A
 7 C G O Q
 3 T Y
 3 V W
 15 a m n p r s u z
 11 c d e g o q
 18 b f h i j k l t fi
 5 v w y
 1 x

StartChar: E
Encoding: 69 69 0
Width: 670
VWidth: 0
Flags: HMW
AnchorPoint: "ced" 495 0 basechar 0
AnchorPoint: "dot" 365 760 basechar 0
LayerCount: 2
Fore
SplineSet
90 408 m 5
 565 408 l 1
 565 308 l 1
 90 308 l 5
 90 408 l 5
90 700 m 5
 615 700 l 1
 615 600 l 1
 90 600 l 5
 90 700 l 5
90 100 m 5
 615 100 l 1
 615 0 l 1
 90 0 l 5
 90 100 l 5
90 700 m 5
 200 700 l 5
 200 0 l 5
 90 0 l 5
 90 700 l 5
EndSplineSet
EndChar

StartChar: I
Encoding: 73 73 1
Width: 300
VWidth: 0
Flags: HMW
AnchorPoint: "ced" 145 0 basechar 0
AnchorPoint: "dot" 140 760 basechar 0
LayerCount: 2
Fore
SplineSet
95 700 m 1
 205 700 l 5
 205 0 l 5
 95 0 l 1
 95 700 l 1
EndSplineSet
EndChar

StartChar: F
Encoding: 70 70 2
Width: 665
VWidth: 0
Flags: HMW
AnchorPoint: "ced" 135 0 basechar 0
AnchorPoint: "dot" 365 760 basechar 0
LayerCount: 2
Fore
SplineSet
90 388 m 5
 570 388 l 1
 570 288 l 1
 90 288 l 5
 90 388 l 5
90 700 m 5
 620 700 l 1
 620 600 l 1
 90 600 l 5
 90 700 l 5
90 700 m 5
 200 700 l 5
 200 0 l 5
 90 0 l 5
 90 700 l 5
EndSplineSet
EndChar

StartChar: H
Encoding: 72 72 3
Width: 765
VWidth: 0
Flags: HMW
AnchorPoint: "ced" 635 0 basechar 0
AnchorPoint: "dot" 380 760 basechar 0
LayerCount: 2
Fore
SplineSet
565 700 m 5
 675 700 l 5
 675 0 l 5
 565 0 l 5
 565 700 l 5
90 408 m 1
 620 408 l 5
 620 308 l 5
 90 308 l 1
 90 408 l 1
90 700 m 1
 200 700 l 1
 200 0 l 1
 90 0 l 1
 90 700 l 1
EndSplineSet
EndChar

StartChar: L
Encoding: 76 76 4
Width: 655
VWidth: 0
Flags: HMW
AnchorPoint: "ced" 365 0 basechar 0
AnchorPoint: "dot" 385 760 basechar 0
LayerCount: 2
Fore
SplineSet
90 100 m 1
 620 100 l 5
 620 0 l 5
 90 0 l 1
 90 100 l 1
90 700 m 1
 200 700 l 1
 200 0 l 1
 90 0 l 1
 90 700 l 1
EndSplineSet
EndChar

StartChar: T
Encoding: 84 84 5
Width: 690
VWidth: 0
Flags: HMW
AnchorPoint: "ced" 347 0 basechar 0
AnchorPoint: "dot" 345 760 basechar 0
LayerCount: 2
Fore
SplineSet
40 700 m 1
 650 700 l 5
 650 600 l 5
 40 600 l 1
 40 700 l 1
290 700 m 1
 400 700 l 1
 400 0 l 1
 290 0 l 1
 290 700 l 1
EndSplineSet
EndChar

StartChar: O
Encoding: 79 79 7
Width: 850
VWidth: 0
Flags: HMW
AnchorPoint: "ced" 425 0 basechar 0
AnchorPoint: "dot" 425 760 basechar 0
LayerCount: 2
Fore
SplineSet
170 350 m 4
 170 204 274 90 425 90 c 4
 576 90 680 204 680 350 c 4
 680 496 576 610 425 610 c 4
 274 610 170 496 170 350 c 4
60 350 m 4
 60 549 220 710 425 710 c 4
 630 710 790 549 790 350 c 4
 790 151 630 -10 425 -10 c 4
 220 -10 60 151 60 350 c 4
EndSplineSet
EndChar

StartChar: C
Encoding: 67 67 8
Width: 732
VWidth: 0
Flags: HMW
AnchorPoint: "ced" 425 0 basechar 0
AnchorPoint: "dot" 425 760 basechar 0
LayerCount: 2
Fore
SplineSet
170 350 m 0
 170 204 274 90 425 90 c 0
 508 90 586 125 634 181 c 1
 702 113 l 1
 637 38 541 -10 425 -10 c 4
 220 -10 60 151 60 350 c 0
 60 549 220 710 425 710 c 4
 541 710 637 662 702 587 c 1
 634 519 l 1
 586 575 508 610 425 610 c 0
 274 610 170 496 170 350 c 0
EndSplineSet
EndChar

StartChar: A
Encoding: 65 65 9
Width: 800
VWidth: 0
Flags: HMW
AnchorPoint: "ced" 697 0 basechar 0
AnchorPoint: "ring" 390 700 basechar 0
AnchorPoint: "dot" 390 760 basechar 0
LayerCount: 2
Fore
SplineSet
350 700 m 1
 450 700 l 1
 440 690 l 1
 350 690 l 1
 350 700 l 1
194 270 m 1
 586 270 l 1
 586 175 l 5
 194 175 l 5
 194 270 l 1
660 0 m 1
 350 690 l 1
 450 700 l 1
 770 0 l 1
 660 0 l 1
350 700 m 1
 450 690 l 1
 140 0 l 1
 30 0 l 1
 350 700 l 1
EndSplineSet
EndChar

StartChar: V
Encoding: 86 86 10
Width: 780
VWidth: 0
Flags: HMW
AnchorPoint: "ced" 390 0 basechar 0
AnchorPoint: "dot" 389 760 basechar 0
LayerCount: 2
Fore
SplineSet
440 0 m 5
 340 0 l 1
 340 30 l 1
 440 30 l 5
 440 0 l 5
145 700 m 1
 440 30 l 1
 340 0 l 1
 30 700 l 1
 145 700 l 1
440 0 m 1
 340 30 l 1
 635 700 l 1
 750 700 l 1
 440 0 l 1
EndSplineSet
EndChar

StartChar: G
Encoding: 71 71 11
Width: 782
VWidth: 0
Flags: HMW
AnchorPoint: "ced" 425 0 basechar 0
AnchorPoint: "dot" 425 760 basechar 0
LayerCount: 2
Fore
SplineSet
712 370 m 5
 712 270 l 5
 435 270 l 5
 435 370 l 5
 712 370 l 5
712 113 m 5
 602 113 l 5
 602 370 l 5
 712 370 l 5
 712 113 l 5
170 350 m 0
 170 204 274 90 425 90 c 4
 508 90 591 120 644 181 c 5
 712 113 l 5
 647 38 541 -10 425 -10 c 4
 220 -10 60 151 60 350 c 0
 60 549 220 710 425 710 c 4
 541 710 627 662 692 587 c 1
 624 519 l 1
 576 575 508 610 425 610 c 4
 274 610 170 496 170 350 c 0
EndSplineSet
EndChar

StartChar: D
Encoding: 68 68 12
Width: 810
VWidth: 0
Flags: HMW
AnchorPoint: "ced" 325 0 basechar 0
AnchorPoint: "dot" 345 760 basechar 0
LayerCount: 2
Fore
SplineSet
90 700 m 1
 380 700 l 1
 380 600 l 1
 90 600 l 1
 90 700 l 1
90 100 m 1
 380 100 l 1
 380 0 l 1
 90 0 l 1
 90 100 l 1
90 700 m 1
 200 700 l 1
 200 0 l 1
 90 0 l 1
 90 700 l 1
380 100 m 5
 531 100 640 204 640 350 c 4
 640 496 531 600 380 600 c 5
 380 700 l 5
 585 700 750 549 750 350 c 4
 750 151 585 0 380 0 c 5
 380 100 l 5
EndSplineSet
EndChar

StartChar: U
Encoding: 85 85 13
Width: 760
VWidth: 0
Flags: HMW
AnchorPoint: "ced" 380 0 basechar 0
AnchorPoint: "dot" 380 760 basechar 0
LayerCount: 2
Fore
SplineSet
575 280 m 1
 575 700 l 1
 680 700 l 1
 680 280 l 1
 575 280 l 1
80 280 m 1
 80 700 l 1
 185 700 l 1
 185 280 l 1
 80 280 l 1
575 280 m 5
 680 280 l 1
 680 111 549 -10 380 -10 c 4
 211 -10 80 111 80 280 c 1
 185 280 l 5
 185 171 273 85 380 85 c 4
 487 85 575 171 575 280 c 5
EndSplineSet
EndChar

StartChar: o
Encoding: 111 111 14
Width: 650
VWidth: 0
Flags: HMW
AnchorPoint: "ced" 325 0 basechar 0
AnchorPoint: "dot" 325 673 basechar 0
LayerCount: 2
Fore
SplineSet
155 260 m 0
 155 161 218 85 325 85 c 0
 432 85 495 161 495 260 c 0
 495 359 432 435 325 435 c 0
 218 435 155 359 155 260 c 0
50 260 m 0
 50 409 166 530 325 530 c 0
 484 530 600 409 600 260 c 0
 600 111 484 -10 325 -10 c 0
 166 -10 50 111 50 260 c 0
EndSplineSet
EndChar

StartChar: B
Encoding: 66 66 15
Width: 695
VWidth: 0
Flags: HMW
AnchorPoint: "ced" 327 0 basechar 0
AnchorPoint: "dot" 308 760 basechar 0
LayerCount: 2
Fore
SplineSet
380 408 m 1
 463 408 508 427 508 502 c 0
 508 577 463 600 380 600 c 1
 380 700 l 1
 509 700 618 636 618 502 c 0
 618 369 509 340 380 340 c 1
 380 408 l 1
90 700 m 1
 200 700 l 1
 200 0 l 1
 90 0 l 1
 90 700 l 1
90 100 m 1
 400 100 l 1
 400 0 l 1
 90 0 l 1
 90 100 l 1
90 700 m 1
 380 700 l 5
 380 600 l 5
 90 600 l 1
 90 700 l 1
90 408 m 1
 400 408 l 1
 400 308 l 1
 90 308 l 1
 90 408 l 1
400 100 m 1
 483 100 535 120 535 200 c 0
 535 280 483 308 400 308 c 1
 400 375 l 1
 529 375 645 339 645 200 c 0
 645 61 529 0 400 0 c 1
 400 100 l 1
EndSplineSet
EndChar

StartChar: K
Encoding: 75 75 16
Width: 745
VWidth: 0
Flags: HMW
AnchorPoint: "ced" 665 0 basechar 0
AnchorPoint: "dot" 345 760 basechar 0
LayerCount: 2
Fore
SplineSet
276 413 m 1
 400 413 l 1
 730 0 l 1
 606 0 l 1
 276 413 l 1
555 700 m 1
 680 700 l 1
 200 207 l 1
 95 230 l 1
 555 700 l 1
90 700 m 1
 200 700 l 1
 200 0 l 1
 90 0 l 1
 90 700 l 1
EndSplineSet
EndChar

StartChar: R
Encoding: 82 82 17
Width: 718
VWidth: 0
Flags: HMW
AnchorPoint: "ced" 615 0 basechar 0
AnchorPoint: "dot" 340 760 basechar 0
LayerCount: 2
Fore
SplineSet
385 348 m 5
 473 348 533 397 533 472 c 4
 533 547 473 600 385 600 c 5
 385 700 l 5
 524 700 643 607 643 472 c 4
 643 338 524 248 385 248 c 5
 385 348 l 5
90 700 m 1
 200 700 l 1
 200 0 l 1
 90 0 l 1
 90 700 l 1
115 700 m 1
 385 700 l 5
 385 600 l 5
 115 600 l 1
 115 700 l 1
115 348 m 1
 385 348 l 5
 385 248 l 5
 115 248 l 1
 115 348 l 1
323 320 m 5
 448 320 l 5
 688 0 l 5
 563 0 l 5
 323 320 l 5
EndSplineSet
EndChar

StartChar: P
Encoding: 80 80 18
Width: 643
VWidth: 0
Flags: HMW
AnchorPoint: "ced" 140 0 basechar 0
AnchorPoint: "dot" 310 760 basechar 0
LayerCount: 2
Fore
SplineSet
350 348 m 5
 438 348 498 397 498 472 c 4
 498 547 438 600 350 600 c 5
 350 700 l 5
 489 700 608 607 608 472 c 4
 608 338 489 248 350 248 c 5
 350 348 l 5
90 700 m 5
 200 700 l 5
 200 0 l 5
 90 0 l 5
 90 700 l 5
95 700 m 5
 350 700 l 5
 350 600 l 5
 95 600 l 5
 95 700 l 5
95 348 m 5
 350 348 l 5
 350 248 l 5
 95 248 l 5
 95 348 l 5
EndSplineSet
EndChar

StartChar: Q
Encoding: 81 81 19
Width: 849
VWidth: 0
Flags: HMW
AnchorPoint: "ced" 425 0 basechar 0
AnchorPoint: "dot" 425 760 basechar 0
LayerCount: 2
Fore
SplineSet
170 350 m 0
 170 204 274 90 425 90 c 0
 576 90 680 204 680 350 c 0
 680 496 576 610 425 610 c 0
 274 610 170 496 170 350 c 0
60 350 m 0
 60 549 220 710 425 710 c 0
 630 710 790 549 790 350 c 0
 790 151 630 -10 425 -10 c 0
 220 -10 60 151 60 350 c 0
735 -44 m 1
 467 224 l 1
 535 292 l 1
 803 25 l 1
 735 -44 l 1
EndSplineSet
EndChar

StartChar: J
Encoding: 74 74 20
Width: 599
VWidth: 0
Flags: HMW
AnchorPoint: "ced" 275 0 basechar 0
AnchorPoint: "dot" 255 760 basechar 0
LayerCount: 2
Fore
SplineSet
434 260 m 1
 434 700 l 1
 539 700 l 1
 539 260 l 1
 434 260 l 1
434 260 m 1
 539 260 l 1
 539 81 434 -10 275 -10 c 4
 157 -10 72 41 20 157 c 1
 102 208 l 1
 137 125 206 85 275 85 c 4
 362 85 434 141 434 260 c 1
EndSplineSet
EndChar

StartChar: S
Encoding: 83 83 21
Width: 625
VWidth: 0
Flags: HMW
AnchorPoint: "ced" 315 0 basechar 0
AnchorPoint: "dot" 335 760 basechar 0
LayerCount: 2
Fore
SplineSet
465 190 m 1
 570 195 l 1
 570 76 487 -10 328 -10 c 0
 199 -10 107 56 45 113 c 1
 104 190 l 1
 152 146 219 85 327 85 c 4
 425 85 465 130 465 190 c 1
183 519 m 1
 78 514 l 1
 78 625 176 710 315 710 c 0
 434 710 501 674 553 622 c 1
 496 549 l 1
 451 593 393 615 325 615 c 0
 227 615 183 566 183 519 c 1
340 406 m 0
 476.380859375 384.220703125 570 327 570 195 c 1
 465 190 l 1
 465 269 408.413085938 299.55859375 300 317 c 0
 166.663280942 338.451099422 78 406 78 514 c 5
 183 519 l 1
 183 454 241.760742188 421.688476562 340 406 c 0
EndSplineSet
EndChar

StartChar: M
Encoding: 77 77 22
Width: 852
VWidth: 0
Flags: HMW
AnchorPoint: "ced" 710 0 basechar 0
AnchorPoint: "dot" 430 760 basechar 0
LayerCount: 2
Fore
SplineSet
450 200 m 5
 402 200 l 5
 402 310 l 1
 450 310 l 1
 450 200 l 5
652 640 m 1
 662 700 l 1
 762 700 l 1
 762 680 l 1
 652 640 l 1
747 630 m 5
 450 200 l 5
 402 310 l 1
 662 700 l 1
 747 630 l 5
762 680 m 1
 762 0 l 1
 652 0 l 1
 652 640 l 1
 762 680 l 1
200 640 m 1
 90 680 l 1
 90 700 l 1
 190 700 l 1
 200 640 l 1
105 630 m 5
 190 700 l 1
 450 310 l 1
 402 200 l 5
 105 630 l 5
90 680 m 1
 200 640 l 1
 200 0 l 1
 90 0 l 1
 90 680 l 1
EndSplineSet
EndChar

StartChar: Y
Encoding: 89 89 23
Width: 680
VWidth: 0
Flags: HMW
AnchorPoint: "ced" 345 0 basechar 0
AnchorPoint: "dot" 337 760 basechar 0
LayerCount: 2
Fore
SplineSet
285 295 m 1
 395 295 l 1
 395 0 l 1
 285 0 l 1
 285 295 l 1
20 700 m 1
 140 700 l 1
 395 295 l 1
 325 217 l 1
 20 700 l 1
540 700 m 1
 660 700 l 1
 355 217 l 1
 285 295 l 1
 540 700 l 1
EndSplineSet
EndChar

StartChar: W
Encoding: 87 87 24
Width: 1065
VWidth: 0
Flags: HMW
AnchorPoint: "ced" 755 0 basechar 0
AnchorPoint: "dot" 530 760 basechar 0
LayerCount: 2
Fore
SplineSet
470 700 m 1
 595 700 l 1
 571 690 l 1
 494 690 l 1
 470 700 l 1
815 0 m 1
 715 0 l 1
 715 10 l 1
 815 10 l 1
 815 0 l 1
595 700 m 1
 815 10 l 1
 715 0 l 1
 494 690 l 1
 595 700 l 1
815 0 m 1
 715 10 l 1
 930 700 l 1
 1040 700 l 1
 815 0 l 1
350 0 m 5
 250 0 l 5
 250 10 l 5
 350 10 l 5
 350 0 l 5
135 700 m 1
 350 10 l 5
 250 0 l 5
 25 700 l 1
 135 700 l 1
350 0 m 5
 250 10 l 5
 470 700 l 1
 571 690 l 1
 350 0 l 5
EndSplineSet
EndChar

StartChar: N
Encoding: 78 78 25
Width: 790
VWidth: 0
Flags: HMW
AnchorPoint: "ced" 650 0 basechar 0
AnchorPoint: "dot" 400 760 basechar 0
LayerCount: 2
Fore
SplineSet
700 0 m 1
 600 0 l 1
 600 24 l 1
 700 14 l 1
 700 0 l 1
190 700 m 1
 190 680 l 1
 90 680 l 1
 90 700 l 1
 190 700 l 1
90 660 m 5
 190 700 l 1
 700 40 l 1
 600 0 l 1
 90 660 l 5
590 700 m 1
 700 700 l 1
 700 0 l 1
 590 20 l 1
 590 700 l 1
90 700 m 1
 200 680 l 1
 200 0 l 1
 90 0 l 1
 90 700 l 1
EndSplineSet
EndChar

StartChar: X
Encoding: 88 88 26
Width: 750
VWidth: 0
Flags: HMW
AnchorPoint: "ced" 635 0 basechar 0
AnchorPoint: "dot" 374 760 basechar 0
LayerCount: 2
Fore
SplineSet
55 700 m 1
 180 700 l 1
 715 0 l 1
 590 0 l 1
 55 700 l 1
570 700 m 1
 695 700 l 1
 160 0 l 1
 35 0 l 1
 570 700 l 1
EndSplineSet
EndChar

StartChar: Z
Encoding: 90 90 27
Width: 680
VWidth: 0
Flags: HMW
AnchorPoint: "ced" 495 0 basechar 0
AnchorPoint: "dot" 335 760 basechar 0
LayerCount: 2
Fore
SplineSet
595 610 m 1
 585 610 l 1
 585 700 l 1
 595 700 l 1
 595 610 l 1
65 90 m 1
 75 90 l 1
 75 0 l 1
 65 0 l 1
 65 90 l 1
85 700 m 1
 585 700 l 1
 585 600 l 1
 85 600 l 1
 85 700 l 1
75 100 m 1
 615 100 l 1
 615 0 l 1
 75 0 l 1
 75 100 l 1
475 610 m 5
 595 610 l 1
 185 90 l 1
 65 90 l 1
 475 610 l 5
EndSplineSet
EndChar

StartChar: l
Encoding: 108 108 28
Width: 265
VWidth: 0
Flags: HMW
AnchorPoint: "ced" 133 0 basechar 0
AnchorPoint: "dot" 133 793 basechar 0
LayerCount: 2
Fore
SplineSet
80 730 m 1
 185 730 l 1
 185 0 l 1
 80 0 l 1
 80 730 l 1
EndSplineSet
EndChar

StartChar: b
Encoding: 98 98 29
Width: 655
VWidth: 0
Flags: HMW
AnchorPoint: "ced" 356 0 basechar 0
AnchorPoint: "dot" 360 673 basechar 0
LayerCount: 2
Fore
SplineSet
180 260 m 4
 180 151 248 85 345 85 c 4
 442 85 505 151 505 260 c 4
 505 369 442 435 345 435 c 4
 248 435 180 369 180 260 c 4
145 260 m 4
 145 409 196 530 365 530 c 4
 494 530 610 419 610 260 c 4
 610 101 494 -10 365 -10 c 4
 206 -10 145 111 145 260 c 4
75 730 m 5
 180 730 l 5
 180 0 l 5
 75 0 l 5
 75 730 l 5
EndSplineSet
EndChar

StartChar: c
Encoding: 99 99 30
Width: 573
VWidth: 0
Flags: HMW
AnchorPoint: "ced" 325 0 basechar 0
AnchorPoint: "dot" 325 673 basechar 0
LayerCount: 2
Fore
SplineSet
150 260 m 0
 150 161 218 85 325 85 c 0
 384 85 442 114 474 158 c 5
 538 92 l 1
 491 28 422 -10 325 -10 c 0
 166 -10 45 111 45 260 c 0
 45 409 166 530 325 530 c 0
 422 530 490 491 537 428 c 1
 474 361 l 1
 442 405 384 435 325 435 c 0
 218 435 150 359 150 260 c 0
EndSplineSet
EndChar

StartChar: d
Encoding: 100 100 31
Width: 655
VWidth: 0
Flags: HMW
AnchorPoint: "ced" 300 0 basechar 0
AnchorPoint: "dot" 295 673 basechar 0
LayerCount: 2
Fore
SplineSet
475 260 m 4
 475 369 407 435 310 435 c 4
 213 435 150 369 150 260 c 4
 150 151 213 85 310 85 c 4
 407 85 475 151 475 260 c 4
510 260 m 4
 510 111 449 -10 290 -10 c 4
 161 -10 45 101 45 260 c 4
 45 419 161 530 290 530 c 4
 459 530 510 409 510 260 c 4
580 730 m 5
 580 0 l 5
 475 0 l 5
 475 730 l 5
 580 730 l 5
EndSplineSet
EndChar

StartChar: k
Encoding: 107 107 32
Width: 615
VWidth: 0
Flags: HMW
AnchorPoint: "ced" 535 0 basechar 0
AnchorPoint: "dot" 335 673 basechar 0
LayerCount: 2
Fore
SplineSet
235 291 m 1
 340 311 l 1
 600 0 l 1
 482 0 l 1
 235 291 l 1
454 520 m 1
 580 520 l 1
 180 110 l 1
 100 154 l 1
 454 520 l 1
75 730 m 1
 180 730 l 1
 180 0 l 1
 75 0 l 1
 75 730 l 1
EndSplineSet
EndChar

StartChar: e
Encoding: 101 101 33
Width: 615
VWidth: 0
Flags: HMW
AnchorPoint: "ced" 320 0 basechar 0
AnchorPoint: "dot" 310 673 basechar 0
LayerCount: 2
Fore
SplineSet
570 260 m 5
 570 230 l 5
 465 230 l 5
 465 260 l 5
 570 260 l 5
465 230 m 5
 129 230 l 1
 129 307 l 1
 465 307 l 5
 465 230 l 5
465 260 m 5
 465 369 407 435 310 435 c 0
 213 435 155 369 155 260 c 1
 50 260 l 1
 50 419 161 530 310 530 c 4
 459 530 570 419 570 260 c 5
 465 260 l 5
50 260 m 1
 155 260 l 1
 155 151 223 85 320 85 c 0
 384 85 441 108 478 157 c 5
 543 92 l 5
 496 28 417 -10 320 -10 c 4
 161 -10 50 101 50 260 c 1
EndSplineSet
EndChar

StartChar: p
Encoding: 112 112 34
Width: 655
VWidth: 0
Flags: HMW
AnchorPoint: "ced" 355 0 basechar 0
AnchorPoint: "dot" 360 673 basechar 0
LayerCount: 2
Fore
SplineSet
180 260 m 0
 180 151 248 85 345 85 c 0
 442 85 505 151 505 260 c 0
 505 369 442 435 345 435 c 0
 248 435 180 369 180 260 c 0
145 260 m 0
 145 409 206 530 365 530 c 0
 494 530 610 419 610 260 c 0
 610 101 494 -10 365 -10 c 0
 196 -10 145 111 145 260 c 0
75 -200 m 1
 75 520 l 1
 180 520 l 1
 180 -200 l 1
 75 -200 l 1
EndSplineSet
EndChar

StartChar: q
Encoding: 113 113 35
Width: 655
VWidth: 0
Flags: HMW
AnchorPoint: "ced" 300 0 basechar 0
AnchorPoint: "dot" 295 673 basechar 0
LayerCount: 2
Fore
SplineSet
475 260 m 0
 475 369 407 435 310 435 c 0
 213 435 150 369 150 260 c 0
 150 151 213 85 310 85 c 0
 407 85 475 151 475 260 c 0
510 260 m 0
 510 111 459 -10 290 -10 c 0
 161 -10 45 101 45 260 c 0
 45 419 161 530 290 530 c 0
 449 530 510 409 510 260 c 0
580 -210 m 1
 475 -210 l 1
 475 520 l 1
 580 520 l 1
 580 -210 l 1
EndSplineSet
EndChar

StartChar: h
Encoding: 104 104 36
Width: 635
VWidth: 0
Flags: HMW
AnchorPoint: "ced" 510 0 basechar 0
AnchorPoint: "dot" 350 673 basechar 0
LayerCount: 2
Fore
SplineSet
565 320 m 5
 565 0 l 5
 460 0 l 5
 460 300 l 5
 565 320 l 5
75 730 m 5
 180 730 l 5
 180 0 l 5
 75 0 l 5
 75 730 l 5
460 300 m 5
 460 379 430 435 330 435 c 4
 241 435 180 380 180 280 c 5
 145 280 l 5
 145 419 221 530 360 530 c 4
 499 530 565 449 565 320 c 5
 460 300 l 5
EndSplineSet
EndChar

StartChar: n
Encoding: 110 110 37
Width: 635
VWidth: 0
Flags: HMW
AnchorPoint: "ced" 520 0 basechar 0
AnchorPoint: "dot" 330 673 basechar 0
LayerCount: 2
Fore
SplineSet
565 320 m 5
 565 0 l 5
 460 0 l 5
 460 300 l 5
 565 320 l 5
75 520 m 5
 180 520 l 5
 180 0 l 5
 75 0 l 5
 75 520 l 5
460 300 m 5
 460 379 430 435 330 435 c 4
 241 435 180 380 180 280 c 5
 145 280 l 5
 145 419 221 530 360 530 c 4
 499 530 565 449 565 320 c 5
 460 300 l 5
EndSplineSet
EndChar

StartChar: m
Encoding: 109 109 38
Width: 900
VWidth: 0
Flags: HMW
AnchorPoint: "ced" 785 0 basechar 0
AnchorPoint: "dot" 450 673 basechar 0
LayerCount: 2
Fore
SplineSet
835 320 m 1
 835 0 l 1
 730 0 l 1
 730 300 l 1
 835 320 l 1
730 300 m 1
 730 380 710 440 625 440 c 0
 552 440 507 380 507 280 c 1
 472 280 l 1
 472 419 521 530 665 530 c 4
 799 530 835 449 835 320 c 1
 730 300 l 1
507 320 m 1
 507 0 l 1
 403 0 l 1
 403 300 l 1
 507 320 l 1
75 520 m 1
 180 520 l 1
 180 0 l 1
 75 0 l 1
 75 520 l 1
403 300 m 1
 403 380 385 440 300 440 c 0
 227 440 180 380 180 280 c 1
 145 280 l 1
 145 419 196 530 340 530 c 4
 484 530 507 449 507 320 c 1
 403 300 l 1
EndSplineSet
EndChar

StartChar: r
Encoding: 114 114 39
Width: 410
VWidth: 0
Flags: HMW
AnchorPoint: "ced" 140 0 basechar 0
AnchorPoint: "dot" 220 673 basechar 0
LayerCount: 2
Fore
SplineSet
75 520 m 5
 180 520 l 5
 180 0 l 5
 75 0 l 5
 75 520 l 5
380 425 m 1
 360 425 l 2
 246 425 180 380 180 270 c 5
 145 270 l 5
 145 409 211 520 380 520 c 1
 380 425 l 1
EndSplineSet
EndChar

StartChar: u
Encoding: 117 117 40
Width: 635
VWidth: 0
Flags: HMW
AnchorPoint: "ced" 285 0 basechar 0
AnchorPoint: "dot" 305 673 basechar 0
LayerCount: 2
Fore
SplineSet
70 200 m 1
 70 520 l 1
 175 520 l 1
 175 220 l 1
 70 200 l 1
560 0 m 1
 455 0 l 1
 455 520 l 1
 560 520 l 1
 560 0 l 1
175 220 m 1
 175 141 205 85 305 85 c 0
 394 85 455 140 455 240 c 1
 490 240 l 1
 490 101 414 -10 275 -10 c 0
 136 -10 70 71 70 200 c 1
 175 220 l 1
EndSplineSet
EndChar

StartChar: g
Encoding: 103 103 41
Width: 655
VWidth: 0
Flags: HMW
AnchorPoint: "dot" 300 673 basechar 0
LayerCount: 2
Fore
SplineSet
475 260 m 0
 475 369 407 435 310 435 c 0
 213 435 150 369 150 260 c 0
 150 151 213 85 310 85 c 0
 407 85 475 151 475 260 c 0
510 260 m 0
 510 111 449 -10 290 -10 c 0
 161 -10 45 101 45 260 c 0
 45 419 161 530 290 530 c 0
 459 530 510 409 510 260 c 0
323 -125 m 1
 323 -220 l 5
 176 -220 94 -172 47 -108 c 5
 113 -42 l 5
 149 -91 220 -125 323 -125 c 1
580 20 m 1
 475 20 l 1
 475 520 l 1
 580 520 l 1
 580 20 l 1
475 20 m 1
 580 20 l 1
 580 -119 462 -220 323 -220 c 5
 323 -125 l 1
 400 -125 475 -79 475 20 c 1
EndSplineSet
EndChar

StartChar: i
Encoding: 105 105 42
Width: 255
VWidth: 0
Flags: HMW
AnchorPoint: "ced" 125 0 basechar 0
LayerCount: 2
Fore
SplineSet
59 682 m 4
 59 720 89 750 127 750 c 4
 165 750 195 720 195 682 c 4
 195 644 165 614 127 614 c 4
 89 614 59 644 59 682 c 4
75 520 m 1
 180 520 l 1
 180 0 l 1
 75 0 l 1
 75 520 l 1
EndSplineSet
EndChar

StartChar: t
Encoding: 116 116 43
Width: 420
VWidth: 0
Flags: HMW
AnchorPoint: "ced" 267 0 basechar 0
AnchorPoint: "dot" 305 673 basechar 0
LayerCount: 2
Fore
SplineSet
35 520 m 5
 380 520 l 1
 380 425 l 1
 35 425 l 5
 35 520 l 5
210 140 m 5
 105 140 l 5
 105 673 l 5
 210 673 l 5
 210 140 l 5
274 85 m 1
 308 85 333 96 350 115 c 1
 402 42 l 1
 375 13 330 -10 268 -10 c 1
 274 85 l 1
210 140 m 5
 210 110 236 85 274 85 c 1
 268 -10 l 5
 169 -10 105 61 105 140 c 5
 210 140 l 5
EndSplineSet
EndChar

StartChar: a
Encoding: 97 97 44
Width: 580
VWidth: 0
Flags: HMW
AnchorPoint: "ced" 440 0 basechar 0
AnchorPoint: "ring" 280 673 basechar 0
AnchorPoint: "dot" 280 673 basechar 0
LayerCount: 2
Fore
SplineSet
315 322 m 1
 455 322 l 1
 455 248 l 1
 345 248 l 1
 315 322 l 1
405 330 m 1
 405 405 364 435 283 435 c 1
 289 530 l 1
 432 530 510 454 510 330 c 1
 405 330 l 1
283 435 m 1
 229 435 180 422 131 382 c 1
 75 450 l 1
 132 499 187 530 289 530 c 1
 283 435 l 1
405 330 m 1
 510 330 l 1
 510 0 l 1
 405 0 l 1
 405 330 l 1
143 155 m 1
 143 102 192 75 265 75 c 0
 343 75 405 100 405 180 c 1
 440 180 l 1
 440 71 374 -10 235 -10 c 0
 136 -10 36 41 36 150 c 5
 143 155 l 1
315 322 m 1
 345 248 l 1
 236 248 143 230 143 155 c 1
 36 150 l 5
 36 295 178 322 315 322 c 1
EndSplineSet
EndChar

StartChar: j
Encoding: 106 106 45
Width: 255
VWidth: 0
Flags: HMW
LayerCount: 2
Fore
SplineSet
59 682 m 4
 59 720 89 750 127 750 c 4
 165 750 195 720 195 682 c 4
 195 644 165 614 127 614 c 4
 89 614 59 644 59 682 c 4
75 520 m 1
 180 520 l 1
 180 -60 l 1
 75 -50 l 1
 75 520 l 1
22 -115 m 1
 28 -210 l 1
 -29 -210 -79 -192 -106 -158 c 1
 -56 -87 l 1
 -39 -106 -11 -115 22 -115 c 1
75 -50 m 1
 180 -60 l 1
 180 -139 117 -210 28 -210 c 1
 22 -115 l 1
 59 -115 75 -90 75 -50 c 1
EndSplineSet
EndChar

StartChar: s
Encoding: 115 115 46
Width: 520
VWidth: 0
Flags: HMW
AnchorPoint: "ced" 265 0 basechar 0
AnchorPoint: "dot" 265 673 basechar 0
LayerCount: 2
Fore
SplineSet
370 145 m 1
 475 152 l 1
 475 63 416 -10 268 -10 c 0
 159 -10 93 37 38 104 c 1
 115 166 l 1
 161 116 207 85 275 85 c 0
 328 85 370 105 370 145 c 1
178 381 m 1
 70 381 l 1
 70 467 143 530 260 530 c 0
 369 530 421 496 463 448 c 5
 396 380 l 1
 364 412 317 433 255 433 c 0
 197 433 178 403 178 381 c 1
293 314 m 0
 409.865234375 294.190429688 475 262 475 152 c 1
 370 145 l 1
 370 178 353.594726562 208.76171875 251 226 c 0
 147.953125 243.314453125 70 283 70 381 c 1
 178 381 l 1
 178 351 205.280273438 328.869140625 293 314 c 0
EndSplineSet
EndChar

StartChar: v
Encoding: 118 118 47
Width: 590
VWidth: 0
Flags: HMW
AnchorPoint: "ced" 297 0 basechar 0
AnchorPoint: "dot" 283 673 basechar 0
LayerCount: 2
Fore
SplineSet
345 0 m 1
 245 0 l 1
 245 5 l 1
 345 5 l 1
 345 0 l 1
245 5 m 1
 460 520 l 1
 565 520 l 1
 345 0 l 1
 245 5 l 1
25 520 m 1
 130 520 l 1
 345 5 l 1
 245 0 l 1
 25 520 l 1
EndSplineSet
EndChar

StartChar: f
Encoding: 102 102 48
Width: 375
VWidth: 0
Flags: HMW
AnchorPoint: "ced" 155 0 basechar 0
LayerCount: 2
Fore
SplineSet
35 520 m 1
 358 520 l 1
 358 425 l 1
 35 425 l 1
 35 520 l 1
210 590 m 1
 210 0 l 1
 105 0 l 1
 105 590 l 1
 210 590 l 1
268 645 m 5
 262 740 l 1
 324 740 369 718 395 688 c 1
 345 617 l 1
 326 638 302 645 268 645 c 5
210 590 m 5
 105 590 l 1
 105 669 173 740 262 740 c 1
 268 645 l 5
 233 645 210 619 210 590 c 5
EndSplineSet
Substitution2: "fi-1" fi
EndChar

StartChar: y
Encoding: 121 121 49
Width: 579
VWidth: 0
Flags: HMW
AnchorPoint: "dot" 295 673 basechar 0
LayerCount: 2
Fore
SplineSet
29 520 m 5
 139 520 l 5
 364 5 l 5
 259 0 l 5
 29 520 l 5
163 -115 m 5
 169 -210 l 5
 112 -210 62 -184 35 -150 c 5
 87 -77 l 5
 104 -96 129 -115 163 -115 c 5
234 -60 m 6
 449 520 l 5
 554 520 l 5
 339 -60 l 6
 309.508789062 -139.55859375 258 -210 169 -210 c 5
 163 -115 l 5
 191 -115 219.153320312 -100.05078125 234 -60 c 6
EndSplineSet
EndChar

StartChar: w
Encoding: 119 119 50
Width: 795
VWidth: 0
Flags: HMW
AnchorPoint: "ced" 555 0 basechar 0
AnchorPoint: "dot" 398 673 basechar 0
LayerCount: 2
Fore
SplineSet
355 520 m 1
 440 520 l 1
 440 470 l 1
 355 470 l 1
 355 520 l 1
615 0 m 5
 520 0 l 5
 520 5 l 5
 615 25 l 5
 615 0 l 5
530 5 m 5
 660 520 l 1
 765 520 l 1
 615 0 l 5
 530 5 l 5
365 470 m 1
 440 520 l 1
 605 25 l 5
 520 0 l 5
 365 470 l 1
275 0 m 1
 180 0 l 1
 180 25 l 1
 275 5 l 1
 275 0 l 1
190 25 m 1
 355 520 l 1
 430 470 l 1
 275 0 l 1
 190 25 l 1
30 520 m 1
 135 520 l 1
 265 5 l 1
 180 0 l 1
 30 520 l 1
EndSplineSet
EndChar

StartChar: x
Encoding: 120 120 51
Width: 615
VWidth: 0
Flags: HMW
AnchorPoint: "ced" 515 0 basechar 0
AnchorPoint: "dot" 295 673 basechar 0
LayerCount: 2
Fore
SplineSet
30 0 m 1
 445 520 l 1
 565 520 l 1
 150 0 l 1
 30 0 l 1
50 520 m 1
 170 520 l 1
 585 0 l 1
 465 0 l 1
 50 520 l 1
EndSplineSet
EndChar

StartChar: z
Encoding: 122 122 52
Width: 570
VWidth: 0
Flags: HMW
AnchorPoint: "ced" 445 0 basechar 0
AnchorPoint: "dot" 290 673 basechar 0
LayerCount: 2
Fore
SplineSet
50 80 m 1
 70 85 l 1
 70 0 l 1
 50 0 l 1
 50 80 l 1
70 95 m 1
 520 95 l 1
 520 0 l 1
 70 0 l 1
 70 95 l 1
490 520 m 1
 510 520 l 1
 510 440 l 1
 490 435 l 1
 490 520 l 1
70 520 m 1
 490 520 l 1
 490 425 l 1
 70 425 l 1
 70 520 l 1
380 435 m 1
 510 440 l 1
 180 85 l 5
 50 80 l 1
 380 435 l 1
EndSplineSet
EndChar

StartChar: zero
Encoding: 48 48 53
Width: 600
VWidth: 0
Flags: HMW
LayerCount: 2
Fore
SplineSet
155 350 m 0
 155 183 198 90 300 90 c 0
 402 90 445 183 445 350 c 0
 445 517 402 610 300 610 c 0
 198 610 155 517 155 350 c 0
45 350 m 0
 45 569 145 710 300 710 c 0
 455 710 555 569 555 350 c 0
 555 131 455 -10 300 -10 c 0
 145 -10 45 131 45 350 c 0
EndSplineSet
EndChar

StartChar: one
Encoding: 49 49 54
Width: 600
VWidth: 0
Flags: HMW
LayerCount: 2
Fore
SplineSet
440 700 m 1
 440 676 l 1
 340 676 l 1
 340 700 l 1
 440 700 l 1
340 700 m 1
 416 631 l 1
 146 441 l 5
 100 520 l 5
 340 700 l 1
330 690 m 1
 440 700 l 1
 440 0 l 1
 330 0 l 1
 330 690 l 1
EndSplineSet
EndChar

StartChar: six
Encoding: 54 54 55
Width: 600
VWidth: 0
Flags: HMW
LayerCount: 2
Fore
SplineSet
160 220 m 1
 125 220 l 1
 125 349 201 445 330 445 c 1
 300 360 l 1
 212 360 160 300 160 220 c 1
160 220 m 0
 160 140 212 80 300 80 c 4
 388 80 440 140 440 220 c 0
 440 300 388 360 300 360 c 5
 330 445 l 1
 459 445 540 349 540 220 c 0
 540 91 449 -10 300 -10 c 0
 151 -10 60 91 60 220 c 0
 60 277.265625 73.9301886792 327.205660377 108 377 c 2
 329 700 l 1
 449 700 l 1
 197.537109375 351.75390625 l 1
 185.174804688 344.909179688 l 1
 146.650390625 315.858398438 160 271.161132812 160 220 c 0
EndSplineSet
EndChar

StartChar: period
Encoding: 46 46 56
Width: 230
VWidth: 0
Flags: HMW
LayerCount: 2
Fore
SplineSet
40 66 m 4
 40 108 74 142 115 142 c 4
 156 142 190 108 190 66 c 4
 190 24 156 -10 115 -10 c 4
 74 -10 40 24 40 66 c 4
EndSplineSet
EndChar

StartChar: comma
Encoding: 44 44 58
Width: 254
VWidth: 0
Flags: HMW
LayerCount: 2
Fore
SplineSet
70 66 m 0
 70 108 104 142 145 142 c 0
 196 142 225 108 225 66 c 0
 225 51.6884765625 213.538085938 30.2109375 205 17 c 2
 110 -130 l 1
 40 -130 l 1
 113.961914062 2.4931640625 l 5
 90.5966796875 9.0791015625 70 39.4404296875 70 66 c 0
EndSplineSet
EndChar

StartChar: two
Encoding: 50 50 60
Width: 600
VWidth: 0
Flags: HMW
LayerCount: 2
Fore
SplineSet
50 85 m 1
 70 85 l 1
 70 0 l 1
 50 0 l 1
 50 85 l 1
425 506 m 1
 425 565 377 615 300 615 c 0
 221 615 169 558 134 475 c 1
 50 523 l 1
 92 629 182 710 300 710 c 0
 429 710 530 615 530 496 c 1
 425 506 l 1
70 0 m 1
 70 95 l 1
 540 95 l 5
 540 0 l 5
 70 0 l 1
384 251 m 2
 180 85 l 1
 50 85 l 1
 303 300 l 2
 402.843078027 384.846884489 425 425 425 506 c 1
 530 496 l 1
 530 396 491.991210938 338.875 384 251 c 2
EndSplineSet
EndChar

StartChar: three
Encoding: 51 51 62
Width: 600
VWidth: 0
Flags: HMW
LayerCount: 2
Fore
SplineSet
240 394 m 5
 427 394 530 347 530 197 c 0
 530 57 417 -10 290 -10 c 4
 200 -10 116 14 50 99 c 1
 115 162 l 1
 156 107 222 84 290 84 c 4
 373 84 425 118 425 197 c 0
 425 276 373 320 240 320 c 5
 240 394 l 5
75 602 m 1
 124 660 176 710 290 710 c 4
 424 710 500 629 500 530 c 0
 500 411 414 340 240 340 c 5
 240 415 l 5
 360 415 395 462 395 520 c 0
 395 578 370 615 290 615 c 4
 217 615 181 587 141 539 c 1
 75 602 l 1
EndSplineSet
EndChar

StartChar: eight
Encoding: 56 56 63
Width: 600
VWidth: 0
Flags: HMW
LayerCount: 2
Fore
SplineSet
185 520 m 0
 185 462 230 415 300 415 c 0
 370 415 415 462 415 520 c 0
 415 578 370 615 300 615 c 0
 230 615 185 578 185 520 c 0
80 530 m 0
 80 629 176 710 300 710 c 0
 424 710 520 629 520 530 c 0
 520 411 424 350 300 350 c 0
 176 350 80 411 80 530 c 0
50 187 m 0
 50 327 163 384 300 384 c 0
 437 384 550 327 550 187 c 0
 550 67 437 -10 300 -10 c 0
 163 -10 50 67 50 187 c 0
155 197 m 0
 155 118 217 84 300 84 c 0
 383 84 445 118 445 197 c 0
 445 276 383 320 300 320 c 4
 217 320 155 276 155 197 c 0
EndSplineSet
EndChar

StartChar: four
Encoding: 52 52 64
Width: 600
VWidth: 0
Flags: HMW
LayerCount: 2
Fore
SplineSet
40 220 m 1
 60 220 l 1
 60 135 l 1
 40 135 l 1
 40 220 l 1
60 230 m 1
 550 230 l 1
 550 135 l 1
 60 135 l 1
 60 230 l 1
480 700 m 1
 480 676 l 1
 365 676 l 1
 365 700 l 1
 480 700 l 1
365 700 m 1
 440 659 l 5
 145 220 l 1
 40 220 l 1
 365 700 l 1
375 680 m 1
 480 700 l 1
 480 0 l 1
 375 0 l 1
 375 680 l 1
EndSplineSet
EndChar

StartChar: five
Encoding: 53 53 65
Width: 600
VWidth: 0
Flags: HMW
LayerCount: 2
Fore
SplineSet
70 311 m 1
 80 346 l 1
 150 346 l 1
 160 311 l 1
 70 311 l 1
315 455 m 1
 442 455 540 360 540 220 c 0
 540 70 422 -10 295 -10 c 0
 205 -10 116 14 50 99 c 1
 120 167 l 1
 161 112 232 86 295 86 c 0
 368 86 435 131 435 220 c 0
 435 299 398 360 295 360 c 1
 315 455 l 1
70 311 m 1
 120 700 l 1
 215 700 l 1
 175 341 l 1
 70 311 l 1
120 700 m 1
 500 700 l 5
 500 605 l 5
 120 605 l 1
 120 700 l 1
295 360 m 1
 238 360 200 352 160 311 c 1
 120 311 l 1
 150 400 176 455 315 455 c 1
 295 360 l 1
EndSplineSet
EndChar

StartChar: seven
Encoding: 55 55 66
Width: 600
VWidth: 0
Flags: HMW
LayerCount: 2
Fore
SplineSet
552 620 m 1
 241 0 l 5
 134 0 l 5
 445 620 l 1
 552 620 l 1
531 700 m 1
 552 700 l 1
 552 620 l 1
 531 620 l 1
 531 700 l 1
60 700 m 1
 531 700 l 1
 531 605 l 1
 60 605 l 1
 60 700 l 1
EndSplineSet
EndChar

StartChar: exclam
Encoding: 33 33 67
Width: 270
VWidth: 0
Flags: HMW
LayerCount: 2
Fore
SplineSet
76 490 m 1
 194 490 l 1
 167 250 l 1
 103 250 l 1
 76 490 l 1
76 730 m 1
 194 730 l 1
 194 490 l 1
 76 490 l 1
 76 730 l 1
EndSplineSet
Refer: 56 46 N 1 0 0 1 20 0 2
EndChar

StartChar: quotesingle
Encoding: 39 39 69
Width: 240
VWidth: 0
Flags: HMW
LayerCount: 2
Fore
SplineSet
55 675 m 0
 55 715 80 740 120 740 c 0
 160 740 185 715 185 675 c 4
 185 668.99609375 184.080078125 663.501953125 183.157226562 657.750976562 c 2
 142 480 l 1
 98 480 l 1
 56.8427734375 657.750976562 l 6
 55.9443359375 663.344726562 55 668.99609375 55 675 c 0
EndSplineSet
EndChar

StartChar: numbersign
Encoding: 35 35 70
Width: 810
VWidth: 0
Flags: HMW
LayerCount: 2
Fore
SplineSet
720 260 m 1
 720 165 l 1
 50 165 l 1
 50 260 l 1
 720 260 l 1
760 535 m 1
 760 440 l 5
 90 440 l 5
 90 535 l 1
 760 535 l 1
555 700 m 1
 655 700 l 1
 535 0 l 1
 435 0 l 1
 555 700 l 1
275 700 m 1
 375 700 l 1
 255 0 l 1
 155 0 l 1
 275 700 l 1
EndSplineSet
EndChar

StartChar: percent
Encoding: 37 37 71
Width: 940
VWidth: 0
Flags: HMW
LayerCount: 2
Fore
SplineSet
620 180 m 0
 620 121 664 75 720 75 c 0
 776 75 820 121 820 180 c 0
 820 239 776 285 720 285 c 0
 664 285 620 239 620 180 c 0
120 550 m 0
 120 491 164 445 220 445 c 0
 276 445 320 491 320 550 c 0
 320 609 276 655 220 655 c 0
 164 655 120 609 120 550 c 0
30 550 m 0
 30 655 115 740 220 740 c 0
 325 740 410 655 410 550 c 0
 410 445 325 360 220 360 c 0
 115 360 30 445 30 550 c 0
530 180 m 0
 530 285 615 370 720 370 c 0
 825 370 910 285 910 180 c 0
 910 75 825 -10 720 -10 c 0
 615 -10 530 75 530 180 c 0
670 730 m 1
 770 730 l 1
 270 0 l 1
 170 0 l 1
 670 730 l 1
EndSplineSet
EndChar

StartChar: dollar
Encoding: 36 36 72
Width: 600
VWidth: 0
Flags: HMW
LayerCount: 2
Fore
SplineSet
281 780 m 1
 351 780 l 1
 351 -80 l 1
 281 -80 l 1
 281 780 l 1
EndSplineSet
Refer: 21 83 N 1 0 0 1 -10 0 2
EndChar

StartChar: asterisk
Encoding: 42 42 73
Width: 324
VWidth: 0
Flags: HMW
LayerCount: 2
Fore
SplineSet
47 479 m 1
 17 531 l 1
 277 681 l 1
 307 629 l 1
 47 479 l 1
17 629 m 1
 47 681 l 1
 307 531 l 1
 277 479 l 1
 17 629 l 1
132 730 m 1
 192 730 l 1
 192 430 l 1
 132 430 l 1
 132 730 l 1
EndSplineSet
EndChar

StartChar: slash
Encoding: 47 47 74
Width: 430
VWidth: 0
Flags: HMW
LayerCount: 2
Fore
SplineSet
360 780 m 1
 450 780 l 1
 70 -80 l 5
 -20 -80 l 1
 360 780 l 1
EndSplineSet
EndChar

StartChar: ampersand
Encoding: 38 38 75
Width: 715
VWidth: 0
Flags: HMW
LayerCount: 2
Fore
SplineSet
305 395 m 0
 381.7890625 415.8046875 425 480 425 530 c 1
 525 530 l 1
 525 435 427.557617188 367.01171875 335 345 c 0
 237.270507812 321.758789062 170 281 170 190 c 1
 70 190 l 1
 70 330 199.364257812 366.379882812 305 395 c 0
245 540 m 1
 145 540 l 1
 145 649 226 710 335 710 c 0
 444 710 525 649 525 530 c 1
 425 530 l 1
 425 589 382 625 335 625 c 0
 288 625 245 594 245 540 c 1
301 291 m 2
 213.191157763 395.722840536 145 460 145 540 c 5
 245 540 l 1
 245 489 297.316523066 437.349819931 380 339 c 2
 665 0 l 1
 545 0 l 1
 301 291 l 2
566 314 m 1
 650 284 l 1
 620 115 489 -10 320 -10 c 0
 171 -10 70 71 70 190 c 1
 170 190 l 1
 170 131 233 85 330 85 c 0
 447 85 536 165 566 314 c 1
EndSplineSet
EndChar

StartChar: parenleft
Encoding: 40 40 76
Width: 275
VWidth: 0
Flags: HMW
LayerCount: 2
Fore
SplineSet
185 750 m 1
 265 710 l 1
 105 450 105 80 265 -180 c 5
 185 -220 l 1
 -15 90 -15 440 185 750 c 1
EndSplineSet
EndChar

StartChar: hyphen
Encoding: 45 45 78
Width: 430
VWidth: 0
Flags: HMW
LayerCount: 2
Fore
SplineSet
65 345 m 5
 365 345 l 5
 365 250 l 1
 65 250 l 1
 65 345 l 5
EndSplineSet
EndChar

StartChar: plus
Encoding: 43 43 79
Width: 510
VWidth: 0
Flags: HMW
LayerCount: 2
Fore
SplineSet
305 589 m 5
 305 134 l 5
 205 134 l 1
 205 589 l 1
 305 589 l 5
30 409 m 1
 480 409 l 1
 480 314 l 1
 30 314 l 1
 30 409 l 1
EndSplineSet
EndChar

StartChar: equal
Encoding: 61 61 80
Width: 510
VWidth: 0
Flags: HMW
LayerCount: 2
Fore
SplineSet
30 285 m 1
 480 285 l 1
 480 190 l 1
 30 190 l 1
 30 285 l 1
30 520 m 5
 480 520 l 5
 480 425 l 1
 30 425 l 1
 30 520 l 5
EndSplineSet
EndChar

StartChar: backslash
Encoding: 92 92 81
Width: 430
VWidth: 0
Flags: HMW
LayerCount: 2
Fore
SplineSet
70 780 m 1
 450 -80 l 1
 360 -80 l 5
 -20 780 l 1
 70 780 l 1
EndSplineSet
EndChar

StartChar: less
Encoding: 60 60 82
Width: 510
VWidth: 0
Flags: HMW
LayerCount: 2
Fore
SplineSet
30 405 m 1
 480 215 l 1
 480 120 l 1
 30 310 l 5
 30 405 l 1
30 405 m 1
 480 595 l 1
 480 500 l 1
 30 310 l 5
 30 405 l 1
EndSplineSet
EndChar

StartChar: question
Encoding: 63 63 84
Width: 555
VWidth: 0
Flags: HMW
LayerCount: 2
Fore
SplineSet
329 452 m 0
 384.67578125 480.341796875 405 516 405 556 c 1
 510 556 l 1
 510 461 458.134765625 411.75 380 374 c 0
 321.237304688 345.609375 305 331 305 250 c 1
 205 250 l 1
 185 400 259.790039062 416.768554688 329 452 c 0
405 556 m 1
 405 605 362 645 285 645 c 0
 206 645 156 601 121 538 c 1
 40 593 l 1
 82 679 162 740 285 740 c 0
 429 740 510 655 510 556 c 1
 405 556 l 1
EndSplineSet
Refer: 56 46 S 1 0 0 1 145 0 2
EndChar

StartChar: at
Encoding: 64 64 85
Width: 1050
VWidth: 0
Flags: HMW
LayerCount: 2
Fore
SplineSet
680 260 m 4
 680 369 612 435 525 435 c 4
 438 435 370 369 370 260 c 0
 370 151 438 85 525 85 c 0
 612 85 680 151 680 260 c 4
715 260 m 0
 715 111 664 -10 515 -10 c 0
 386 -10 270 101 270 260 c 0
 270 419 386 530 515 530 c 0
 664 530 715 409 715 260 c 0
780 520 m 1
 780 120 l 1
 680 100 l 1
 680 520 l 1
 780 520 l 1
55 260 m 0
 55 519 246 730 525 730 c 0
 784 730 995 559 995 300 c 0
 995 63.638671875 873.768554688 -10.2880859375 797.8671875 -10.2880859375 c 0
 703.793945312 -10.2880859375 680 43.19921875 680 100 c 1
 780 120 l 1
 780 60.53515625 790.893554688 32.859375 827.37890625 32.859375 c 0
 878.646484375 32.859375 964 115.765625 964 300 c 0
 964 543 768 701 525 701 c 0
 262 701 86 503 86 260 c 0
 86 17 282 -181 525 -181 c 1
 525 -210 l 1
 266 -210 55 1 55 260 c 0
EndSplineSet
EndChar

StartChar: bracketleft
Encoding: 91 91 86
Width: 305
VWidth: 0
Flags: HMW
LayerCount: 2
Fore
SplineSet
135 634 m 1
 135 730 l 1
 285 730 l 1
 285 634 l 1
 135 634 l 1
135 -200 m 1
 135 -104 l 5
 285 -104 l 5
 285 -200 l 1
 135 -200 l 1
45 730 m 1
 145 730 l 1
 145 -200 l 1
 45 -200 l 1
 45 730 l 1
EndSplineSet
EndChar

StartChar: asciicircum
Encoding: 94 94 88
Width: 510
VWidth: 0
Flags: HMW
LayerCount: 2
Fore
SplineSet
400 430 m 5
 200 730 l 1
 310 730 l 1
 490 430 l 1
 400 430 l 5
200 730 m 1
 310 730 l 1
 110 430 l 1
 20 430 l 1
 200 730 l 1
EndSplineSet
EndChar

StartChar: underscore
Encoding: 95 95 89
Width: 600
VWidth: 0
Flags: HMW
LayerCount: 2
Fore
SplineSet
-2 -70 m 5
 602 -70 l 5
 602 -170 l 1
 -2 -170 l 1
 -2 -70 l 5
EndSplineSet
EndChar

StartChar: braceleft
Encoding: 123 123 90
Width: 369
VWidth: 0
Flags: HMW
LayerCount: 2
Fore
SplineSet
55 315 m 5
 73 315 l 5
 73 215 l 1
 55 215 l 1
 55 315 l 5
147 150 m 1
 247 150 l 1
 247 -30 l 1
 147 -50 l 1
 147 150 l 1
147 580 m 1
 247 560 l 1
 247 380 l 1
 147 380 l 1
 147 580 l 1
147 380 m 1
 247 380 l 1
 247 301 180 240 61 240 c 1
 55 315 l 5
 143 315 147 340 147 380 c 1
147 150 m 1
 147 190 133 215 55 215 c 1
 61 290 l 5
 180 290 247 229 247 150 c 1
 147 150 l 1
247 560 m 1
 147 580 l 1
 147 659 214 730 333 730 c 1
 339 635 l 1
 261 635 247 600 247 560 c 1
247 -30 m 1
 247 -70 261 -105 339 -105 c 1
 333 -200 l 1
 214 -200 147 -129 147 -50 c 1
 247 -30 l 1
EndSplineSet
EndChar

StartChar: bar
Encoding: 124 124 92
Width: 320
VWidth: 0
Flags: HMW
LayerCount: 2
Fore
SplineSet
205 780 m 5
 205 -80 l 5
 115 -80 l 1
 115 780 l 1
 205 780 l 5
EndSplineSet
EndChar

StartChar: asciitilde
Encoding: 126 126 93
Width: 470
VWidth: 0
Flags: HMW
LayerCount: 2
Fore
SplineSet
115 174 m 5
 45 194 l 5
 49.5654296875 272.260742188 96.859375 310.638671875 148.23046875 310.638671875 c 4
 211.844726562 310.638671875 267.365234375 246.962890625 311.607421875 246.962890625 c 4
 356.108398438 246.962890625 365 276.58984375 365 314 c 5
 425 294 l 5
 420.434570312 205.739257812 373.989257812 177.361328125 323.821289062 177.361328125 c 4
 262.262695312 177.361328125 209.831054688 241.037109375 167.247070312 241.037109375 c 4
 123.446289062 241.037109375 115 211.41015625 115 174 c 5
EndSplineSet
EndChar

StartChar: tilde
Encoding: 732 732 98
Width: 500
VWidth: 0
Flags: HMW
AnchorPoint: "dot" 250 610 basechar 0
LayerCount: 2
Fore
SplineSet
130 600 m 1
 49 620 l 5
 53.5654296875 698.260742188 111.859375 736.638671875 163.23046875 736.638671875 c 0
 226.844726562 736.638671875 282.365234375 692.962890625 326.607421875 692.962890625 c 4
 361.108398438 692.962890625 380 702.58984375 380 740 c 1
 460 720 l 1
 455.434570312 631.739257812 388.989257812 603.361328125 338.821289062 603.361328125 c 0
 277.262695312 603.361328125 224.831054688 647.037109375 182.247070312 647.037109375 c 4
 148.446289062 647.037109375 130 637.41015625 130 600 c 1
EndSplineSet
EndChar

StartChar: dotaccent
Encoding: 729 729 99
Width: 500
VWidth: 0
Flags: HMW
AnchorPoint: "dot" 250 590 basechar 0
LayerCount: 2
Fore
SplineSet
175 656 m 0
 175 698 209 732 250 732 c 0
 291 732 325 698 325 656 c 0
 325 614 291 580 250 580 c 0
 209 580 175 614 175 656 c 0
EndSplineSet
EndChar

StartChar: ring
Encoding: 730 730 100
Width: 500
VWidth: 0
Flags: HMW
AnchorPoint: "ring" 250 590 basechar 0
LayerCount: 2
Fore
SplineSet
200 680 m 0
 200 651 221 630 250 630 c 0
 279 630 300 651 300 680 c 0
 300 709 279 730 250 730 c 4
 221 730 200 709 200 680 c 0
150 680 m 0
 150 735 195 780 250 780 c 0
 305 780 350 735 350 680 c 0
 350 625 305 580 250 580 c 0
 195 580 150 625 150 680 c 0
EndSplineSet
EndChar

StartChar: breve
Encoding: 728 728 101
Width: 500
VWidth: 0
Flags: HMW
AnchorPoint: "dot" 244 569 basechar 0
LayerCount: 2
Fore
SplineSet
244 669 m 1
 194 669 159 693 159 741 c 5
 64 735 l 5
 64 636 135 569 244 569 c 1
 244 669 l 1
244 669 m 1
 244 569 l 1
 353 569 424 636 424 735 c 5
 329 741 l 5
 329 693 294 669 244 669 c 1
EndSplineSet
EndChar

StartChar: circumflex
Encoding: 710 710 102
Width: 500
VWidth: 0
Flags: HMW
AnchorPoint: "dot" 250 630 basechar 0
LayerCount: 2
Fore
SplineSet
315 630 m 1
 215 730 l 1
 305 730 l 1
 405 630 l 1
 315 630 l 1
195 730 m 5
 285 730 l 1
 185 630 l 1
 95 630 l 5
 195 730 l 5
EndSplineSet
EndChar

StartChar: caron
Encoding: 711 711 103
Width: 500
VWidth: 0
Flags: HMW
AnchorPoint: "dot" 250 630 basechar 0
LayerCount: 2
Fore
SplineSet
185 730 m 1
 285 630 l 1
 195 630 l 5
 95 730 l 5
 185 730 l 1
305 630 m 1
 215 630 l 1
 315 730 l 1
 405 730 l 1
 305 630 l 1
EndSplineSet
EndChar

StartChar: cent
Encoding: 162 162 105
Width: 600
VWidth: 0
Flags: HMW
LayerCount: 2
Fore
SplineSet
295 600 m 5
 355 600 l 1
 355 -80 l 1
 295 -80 l 5
 295 600 l 5
EndSplineSet
Refer: 30 99 N 1 0 0 1 10 0 2
EndChar

StartChar: sterling
Encoding: 163 163 108
Width: 600
VWidth: 0
Flags: HMW
LayerCount: 2
Fore
SplineSet
155 45 m 1
 57 -1 l 5
 227 272.541992188 105 278.921875 105 530 c 1
 205 530 l 1
 205 346.112304688 305 219.735351562 155 45 c 1
145 -25 m 1
 57 -1 l 5
 131.565429688 77.2607421875 186.859375 91.638671875 258.23046875 91.638671875 c 0
 321.844726562 91.638671875 362.365234375 57.962890625 406.607421875 57.962890625 c 0
 451.108398438 57.962890625 477 77.58984375 497 115 c 1
 555 70 l 1
 530.434570312 -18.2607421875 463.989257812 -31.638671875 413.821289062 -31.638671875 c 0
 332.262695312 -31.638671875 274.831054688 12.037109375 232.247070312 12.037109375 c 0
 188.446289062 12.037109375 165 2.41015625 145 -25 c 1
45 390 m 1
 343 390 l 1
 343 295 l 1
 45 295 l 1
 45 390 l 1
305 615 m 1
 299 710 l 1
 381 710 450 669 487 610 c 1
 435 541 l 1
 408 580 359 615 305 615 c 1
205 530 m 1
 105 530 l 1
 105 639 180 710 299 710 c 1
 305 615 l 1
 240 615 205 589 205 530 c 1
EndSplineSet
EndChar

StartChar: currency
Encoding: 164 164 109
Width: 600
VWidth: 0
Flags: HMW
LayerCount: 2
Fore
SplineSet
128 204 m 1
 189 143 l 1
 93 47 l 1
 32 108 l 1
 128 204 l 1
406 148 m 1
 466 209 l 5
 567 108 l 5
 507 47 l 1
 406 148 l 1
507 583 m 1
 568 522 l 1
 455 409 l 1
 394 470 l 1
 507 583 l 1
32 522 m 1
 93 583 l 1
 206 470 l 1
 145 409 l 1
 32 522 l 1
168 315 m 0
 168 238 224 179 300 179 c 0
 376 179 432 238 432 315 c 0
 432 392 376 451 300 451 c 0
 224 451 168 392 168 315 c 0
84 315 m 0
 84 434 181 531 300 531 c 0
 419 531 516 434 516 315 c 0
 516 196 419 99 300 99 c 0
 181 99 84 196 84 315 c 0
EndSplineSet
EndChar

StartChar: brokenbar
Encoding: 166 166 111
Width: 300
VWidth: 0
Flags: HMW
LayerCount: 2
Fore
SplineSet
185 460 m 5
 115 460 l 5
 115 780 l 1
 185 780 l 1
 185 460 l 5
185 280 m 1
 185 -80 l 1
 115 -80 l 1
 115 280 l 1
 185 280 l 1
EndSplineSet
EndChar

StartChar: section
Encoding: 167 167 112
Width: 520
VWidth: 0
Flags: HMW
LayerCount: 2
Fore
SplineSet
395 140 m 1
 475 140 l 1
 475 61 414 -10 275 -10 c 0
 166 -10 100 37 45 104 c 1
 100 155 l 1
 146 105 197 65 275 65 c 0
 348 65 395 90 395 140 c 1
280 287 m 0
 397 268 475 260 475 140 c 1
 395 140 l 1
 395 180 358.594726562 200.76171875 250 216 c 0
 146.522460938 230.520507812 10 328 150 473 c 5
 210 473 l 5
 110 343 182.280273438 302.869140625 280 287 c 0
170 573 m 1
 90 573 l 1
 90 649 166 710 275 710 c 0
 384 710 436 670 478 628 c 1
 429 573 l 1
 391 606 353 635 275 635 c 0
 197 635 170 605 170 573 c 1
300 498 m 0
 417 479 555 400 415 250 c 5
 355 250 l 5
 455 380 378.594726562 411.76171875 270 427 c 0
 166.522460938 441.520507812 90 478 90 573 c 1
 170 573 l 1
 170 523 202.280273438 513.869140625 300 498 c 0
EndSplineSet
EndChar

StartChar: copyright
Encoding: 169 169 114
Width: 850
VWidth: 0
Flags: HMW
LayerCount: 2
Fore
SplineSet
113 350 m 0
 113 174 254 30 425 30 c 0
 596 30 737 174 737 350 c 0
 737 526 596 670 425 670 c 0
 254 670 113 526 113 350 c 0
70 350 m 0
 70 549 230 710 425 710 c 0
 620 710 780 549 780 350 c 0
 780 151 620 -10 425 -10 c 0
 230 -10 70 151 70 350 c 0
EndSplineSet
Refer: 8 67 N 0.5 0 0 0.5 220.5 175 2
EndChar

StartChar: registered
Encoding: 174 174 116
Width: 850
VWidth: 0
Flags: HMW
LayerCount: 2
Fore
SplineSet
113 350 m 0
 113 174 254 30 425 30 c 0
 596 30 737 174 737 350 c 0
 737 526 596 670 425 670 c 0
 254 670 113 526 113 350 c 0
70 350 m 0
 70 549 230 710 425 710 c 0
 620 710 780 549 780 350 c 0
 780 151 620 -10 425 -10 c 0
 230 -10 70 151 70 350 c 0
EndSplineSet
Refer: 17 82 S 0.5 0 0 0.5 252 175 2
EndChar

StartChar: degree
Encoding: 176 176 119
Width: 400
VWidth: 0
Flags: HMW
LayerCount: 2
Fore
SplineSet
130 680 m 0
 130 641 161 610 200 610 c 0
 239 610 270 641 270 680 c 0
 270 719 239 750 200 750 c 0
 161 750 130 719 130 680 c 0
100 680 m 0
 100 735 145 780 200 780 c 0
 255 780 300 735 300 680 c 0
 300 625 255 580 200 580 c 0
 145 580 100 625 100 680 c 0
EndSplineSet
EndChar

StartChar: mu
Encoding: 181 181 120
Width: 635
VWidth: 0
Flags: HMW
LayerCount: 2
Fore
SplineSet
80 220 m 1
 180 220 l 5
 180 -198 l 5
 80 -198 l 1
 80 220 l 1
EndSplineSet
Refer: 40 117 N 1 0 0 1 0 0 2
EndChar

StartChar: grave
Encoding: 96 96 123
Width: 320
VWidth: 0
Flags: HMW
AnchorPoint: "dot" 200 590 basechar 0
LayerCount: 2
Fore
SplineSet
180 590 m 1
 60 730 l 1
 180 730 l 5
 260 590 l 5
 180 590 l 1
EndSplineSet
EndChar

StartChar: acute
Encoding: 180 180 124
Width: 320
VWidth: 0
Flags: HMW
AnchorPoint: "dot" 120 590 basechar 0
LayerCount: 2
Fore
SplineSet
140 590 m 1
 60 590 l 5
 140 730 l 5
 260 730 l 1
 140 590 l 1
EndSplineSet
EndChar

StartChar: logicalnot
Encoding: 172 172 126
Width: 540
VWidth: 0
Flags: HMW
LayerCount: 2
Fore
SplineSet
405 435 m 5
 475 435 l 5
 475 275 l 5
 405 275 l 5
 405 435 l 5
EndSplineSet
Refer: 78 45 S 1.13333 0 0 1 -8.66667 100 2
EndChar

StartChar: macron
Encoding: 175 175 127
Width: 300
VWidth: 0
Flags: HMW
LayerCount: 2
Fore
SplineSet
-2 800 m 1
 302 800 l 5
 302 720 l 5
 -2 720 l 1
 -2 800 l 1
EndSplineSet
EndChar

StartChar: paragraph
Encoding: 182 182 130
Width: 600
VWidth: 0
Flags: HMW
LayerCount: 2
Fore
SplineSet
445 700 m 1
 445 656 l 1
 353 656 l 1
 353 700 l 1
 445 700 l 1
525 700 m 1
 525 0 l 1
 445 0 l 1
 445 700 l 1
 525 700 l 1
375 700 m 1
 375 0 l 1
 295 0 l 1
 295 700 l 1
 375 700 l 1
295 260 m 1
 196 260 75 351 75 480 c 0
 75 609 196 700 295 700 c 1
 295 520 295 440 295 260 c 1
EndSplineSet
EndChar

StartChar: cedilla
Encoding: 184 184 131
Width: 320
VWidth: 0
Flags: HMW
AnchorPoint: "ced" 146 -1 basechar 0
LayerCount: 2
Fore
SplineSet
84 30 m 1
 124 30 l 1
 174 -4 249 -44 249 -102 c 0
 249 -159 227 -194 150 -194 c 0
 113 -194 75 -180 54 -165 c 1
 74 -105 l 5
 90 -118 113 -130 133 -130 c 0
 164 -130 178 -121 178 -99 c 0
 178 -64 131 -9 84 30 c 1
EndSplineSet
EndChar

StartChar: dotlessi
Encoding: 305 305 225
Width: 270
VWidth: 0
Flags: HMW
AnchorPoint: "ced" 135 0 basechar 0
LayerCount: 2
Fore
SplineSet
85 520 m 1
 185 520 l 1
 185 0 l 1
 85 0 l 1
 85 520 l 1
EndSplineSet
EndChar

StartChar: uni0237
Encoding: 567 567 349
Width: 270
VWidth: 0
Flags: MW
LayerCount: 2
Fore
SplineSet
89 520 m 1
 189 520 l 1
 189 -60 l 1
 89 -60 l 1
 89 520 l 1
38 -115 m 5
 44 -210 l 1
 -13 -210 -63 -194 -90 -160 c 1
 -52 -81 l 5
 -35 -100 -5 -115 38 -115 c 5
89 -60 m 1
 189 -60 l 1
 189 -139 133 -210 44 -210 c 1
 38 -115 l 5
 75 -115 89 -100 89 -60 c 1
EndSplineSet
EndChar

StartChar: kgreenlandic
Encoding: 312 312 573
Width: 590
VWidth: 0
Flags: HMW
AnchorPoint: "dot" 325 673 basechar 0
AnchorPoint: "ced" 515 0 basechar 0
LayerCount: 2
Fore
SplineSet
245 291 m 1
 345 305 l 5
 565 0 l 5
 455 0 l 1
 245 291 l 1
430 520 m 1
 545 520 l 5
 185 110 l 5
 110 154 l 1
 430 520 l 1
85 520 m 1
 185 520 l 5
 185 0 l 5
 85 0 l 1
 85 520 l 1
EndSplineSet
EndChar

StartChar: ogonek
Encoding: 731 731 574
Width: 320
VWidth: 0
Flags: HMW
AnchorPoint: "ced" 149 0 basechar 0
LayerCount: 2
Fore
SplineSet
209 30 m 1
 162 -9 115 -64 115 -99 c 0
 115 -121 129 -130 160 -130 c 0
 190 -130 210 -118 219 -115 c 1
 239 -165 l 1
 218 -180 180 -194 143 -194 c 4
 76 -194 44 -159 44 -102 c 4
 44 -44 119 -4 169 30 c 1
 209 30 l 1
EndSplineSet
EndChar

StartChar: AE
Encoding: 198 198 582
Width: 1090
VWidth: 0
Flags: HMW
LayerCount: 2
Fore
SplineSet
440 700 m 1
 565 700 l 1
 560 600 l 5
 440 600 l 5
 440 700 l 1
204 260 m 1
 596 260 l 1
 596 165 l 1
 204 165 l 1
 204 260 l 1
440 700 m 1
 535 690 l 1
 145 0 l 1
 40 0 l 1
 440 700 l 1
EndSplineSet
Refer: 0 69 N 1 0 0 1 430 0 2
EndChar

StartChar: fi
Encoding: 64257 64257 585
Width: 385
VWidth: 0
Flags: HMW
AnchorPoint: "ced" 168 0 basechar 0
LayerCount: 2
Fore
SplineSet
45 520 m 1
 358 520 l 1
 358 425 l 1
 45 425 l 1
 45 520 l 1
220 590 m 1
 220 0 l 1
 115 0 l 1
 115 590 l 1
 220 590 l 1
220 590 m 1
 115 590 l 1
 115 669 175 740 274 740 c 5
 280 645 l 1
 235 645 220 619 220 590 c 1
280 645 m 5
 274 740 l 1
 312.70703125 740 344.788085938 731.815429688 370 708.608398438 c 1
 370 611 l 1
 353 625 324 645 280 645 c 5
EndSplineSet
EndChar
